<svg xmlns="http://www.w3.org/2000/svg" viewBox="0 0 1400 800" preserveAspectRatio="xMidYMid slice">
  <defs>
    <linearGradient id="g" x1="0" y1="0" x2="1" y2="1">
      <stop offset="0" stop-color="#241a33"/>
      <stop offset="0.55" stop-color="#4c1d95"/>
      <stop offset="1" stop-color="#7c2d12"/>
    </linearGradient>
    <radialGradient id="r" cx="35%" cy="20%" r="70%">
      <stop offset="0" stop-color="#fbbf24" stop-opacity="0.55"/>
      <stop offset="1" stop-color="#fbbf24" stop-opacity="0"/>
    </radialGradient>
  </defs>
  <rect width="1400" height="800" fill="url(#g)"/>
  <rect width="1400" height="800" fill="url(#r)"/>
  <g opacity="0.23" fill="none" stroke="#fff" stroke-width="2">
    <path d="M80 620 C260 520 350 590 520 480 S850 350 1050 430 1240 430 1360 330"/>
    <path d="M-40 270 C180 170 310 260 480 150 S810 80 980 190 1220 180 1450 70"/>
  </g>
  <g opacity="0.18">
    <rect x="96" y="448" width="78" height="220" rx="14" fill="#fff" transform="rotate(-7 135 558)"/>
    <rect x="190" y="405" width="74" height="265" rx="14" fill="#fff" transform="rotate(5 227 537)"/>
    <rect x="1120" y="138" width="84" height="260" rx="16" fill="#fff" transform="rotate(8 1162 268)"/>
    <rect x="1220" y="170" width="78" height="230" rx="16" fill="#fff" transform="rotate(-6 1259 285)"/>
  </g>
  <g fill="#fff" opacity="0.22">
    <circle cx="1030" cy="620" r="120"/>
    <circle cx="1110" cy="620" r="120"/>
    <circle cx="1070" cy="610" r="55" fill="#fbbf24" opacity="0.42"/>
  </g>
</svg>